<svg width="183" height="75" viewBox="0 0 183 75" fill="none" xmlns="http://www.w3.org/2000/svg">
<path d="M22.656 55.004C22.416 55.004 22.212 54.932 22.044 54.788C21.9 54.644 21.828 54.44 21.828 54.176V47.588C21.828 47.348 21.9 47.156 22.044 47.012C22.212 46.844 22.416 46.76 22.656 46.76H23.412C23.988 46.76 24.492 46.496 24.924 45.968C25.356 45.44 25.716 44.636 26.004 43.556C26.316 42.452 26.544 41.06 26.688 39.38C26.832 37.7 26.904 35.708 26.904 33.404V26V25.628C26.904 25.388 26.976 25.196 27.12 25.052C27.288 24.884 34.512 19.5 34.752 19.5C35.016 19.5 42.24 24.884 42.384 25.052C42.552 25.196 42.636 25.4 42.636 25.664V26V46.76H44.4C44.664 46.76 44.868 46.844 45.012 47.012C45.18 47.156 45.264 47.348 45.264 47.588V54.176C45.264 54.416 45.18 54.608 45.012 54.752C44.868 54.92 44.664 55.004 44.4 55.004H42.564C42.3 55.004 42.096 54.92 41.952 54.752C41.808 54.608 41.736 54.416 41.736 54.176V50H25.356V54.176C25.356 54.416 25.272 54.608 25.104 54.752C24.96 54.92 24.756 55.004 24.492 55.004H22.656ZM28.02 46.76H39.108V28.04H30.36V33.836C30.36 37.244 30.156 39.992 29.748 42.08C29.364 44.168 28.788 45.728 28.02 46.76Z" fill="#369A30"/>
<path d="M53.3763 55.272C52.1603 55.272 51.1443 55.04 50.3283 54.576C49.5123 54.112 48.8883 53.472 48.4563 52.656C48.0243 51.824 47.7843 50.88 47.7363 49.824C47.7203 49.552 47.7123 49.208 47.7123 48.792C47.7123 48.36 47.7203 48.016 47.7363 47.76C47.7843 46.688 48.0243 45.744 48.4563 44.928C48.9043 44.112 49.5363 43.472 50.3523 43.008C51.1683 42.544 52.1763 42.312 53.3763 42.312C54.5763 42.312 55.5843 42.544 56.4003 43.008C57.2163 43.472 57.8403 44.112 58.2723 44.928C58.7203 45.744 58.9683 46.688 59.0163 47.76C59.0323 48.016 59.0403 48.36 59.0403 48.792C59.0403 49.208 59.0323 49.552 59.0163 49.824C58.9683 50.88 58.7283 51.824 58.2963 52.656C57.8643 53.472 57.2403 54.112 56.4243 54.576C55.6083 55.04 54.5923 55.272 53.3763 55.272ZM53.3763 53.424C54.3683 53.424 55.1603 53.112 55.7523 52.488C56.3443 51.848 56.6643 50.92 56.7123 49.704C56.7283 49.464 56.7363 49.16 56.7363 48.792C56.7363 48.424 56.7283 48.12 56.7123 47.88C56.6643 46.664 56.3443 45.744 55.7523 45.12C55.1603 44.48 54.3683 44.16 53.3763 44.16C52.3843 44.16 51.5843 44.48 50.9763 45.12C50.3843 45.744 50.0723 46.664 50.0403 47.88C50.0243 48.12 50.0163 48.424 50.0163 48.792C50.0163 49.16 50.0243 49.464 50.0403 49.704C50.0723 50.92 50.3843 51.848 50.9763 52.488C51.5843 53.112 52.3843 53.424 53.3763 53.424Z" fill="#369A30"/>
<path d="M83.5169 55.272C82.3009 55.272 81.2849 55.04 80.4689 54.576C79.6529 54.112 79.0289 53.472 78.5969 52.656C78.1649 51.824 77.9249 50.88 77.8769 49.824C77.8609 49.552 77.8529 49.208 77.8529 48.792C77.8529 48.36 77.8609 48.016 77.8769 47.76C77.9249 46.688 78.1649 45.744 78.5969 44.928C79.0449 44.112 79.6769 43.472 80.4929 43.008C81.3089 42.544 82.3169 42.312 83.5169 42.312C84.7169 42.312 85.7249 42.544 86.5409 43.008C87.3569 43.472 87.9809 44.112 88.4129 44.928C88.8609 45.744 89.1089 46.688 89.1569 47.76C89.1729 48.016 89.1809 48.36 89.1809 48.792C89.1809 49.208 89.1729 49.552 89.1569 49.824C89.1089 50.88 88.8689 51.824 88.4369 52.656C88.0049 53.472 87.3809 54.112 86.5649 54.576C85.7489 55.04 84.7329 55.272 83.5169 55.272ZM83.5169 53.424C84.5089 53.424 85.3009 53.112 85.8929 52.488C86.4849 51.848 86.8049 50.92 86.8529 49.704C86.8689 49.464 86.8769 49.16 86.8769 48.792C86.8769 48.424 86.8689 48.12 86.8529 47.88C86.8049 46.664 86.4849 45.744 85.8929 45.12C85.3009 44.48 84.5089 44.16 83.5169 44.16C82.5249 44.16 81.7249 44.48 81.1169 45.12C80.5249 45.744 80.2129 46.664 80.1809 47.88C80.1649 48.12 80.1569 48.424 80.1569 48.792C80.1569 49.16 80.1649 49.464 80.1809 49.704C80.2129 50.92 80.5249 51.848 81.1169 52.488C81.7249 53.112 82.5249 53.424 83.5169 53.424Z" fill="#369A30"/>
<path d="M98.4502 59.592C98.2902 59.592 98.1542 59.536 98.0422 59.424C97.9462 59.328 97.8982 59.2 97.8982 59.04V55.032C96.4902 55.032 95.3302 54.8 94.4182 54.336C93.5222 53.872 92.8502 53.232 92.4022 52.416C91.9702 51.6 91.7222 50.672 91.6582 49.632C91.6262 49.072 91.6262 48.512 91.6582 47.952C91.7222 46.896 91.9782 45.968 92.4262 45.168C92.8742 44.352 93.5462 43.712 94.4422 43.248C95.3542 42.784 96.5062 42.552 97.8982 42.552C97.8982 42.392 97.9462 42.264 98.0422 42.168C98.1542 42.056 98.2902 42 98.4502 42H99.5782C99.7382 42 99.8662 42.056 99.9622 42.168C100.074 42.264 100.13 42.392 100.13 42.552C101.522 42.552 102.666 42.784 103.562 43.248C104.474 43.712 105.154 44.352 105.602 45.168C106.066 45.968 106.322 46.896 106.37 47.952C106.402 48.512 106.402 49.072 106.37 49.632C106.322 50.672 106.074 51.6 105.626 52.416C105.178 53.232 104.506 53.872 103.61 54.336C102.714 54.8 101.554 55.032 100.13 55.032V59.04C100.13 59.2 100.074 59.328 99.9622 59.424C99.8662 59.536 99.7382 59.592 99.5782 59.592H98.4502ZM97.8982 53.184V44.4C96.6022 44.4 95.6262 44.712 94.9702 45.336C94.3142 45.96 93.9542 46.888 93.8902 48.12C93.8742 48.36 93.8662 48.592 93.8662 48.816C93.8662 49.024 93.8742 49.24 93.8902 49.464C93.9702 50.696 94.3302 51.624 94.9702 52.248C95.6262 52.872 96.6022 53.184 97.8982 53.184ZM100.13 53.184C101.442 53.184 102.418 52.872 103.058 52.248C103.714 51.608 104.074 50.68 104.138 49.464C104.154 49.24 104.162 49.024 104.162 48.816C104.162 48.592 104.154 48.36 104.138 48.12C104.09 46.888 103.73 45.96 103.058 45.336C102.402 44.712 101.426 44.4 100.13 44.4V53.184Z" fill="#369A30"/>
<path d="M114.501 55.272C113.285 55.272 112.269 55.04 111.453 54.576C110.637 54.112 110.013 53.472 109.581 52.656C109.149 51.824 108.909 50.88 108.861 49.824C108.845 49.552 108.837 49.208 108.837 48.792C108.837 48.36 108.845 48.016 108.861 47.76C108.909 46.688 109.149 45.744 109.581 44.928C110.029 44.112 110.661 43.472 111.477 43.008C112.293 42.544 113.301 42.312 114.501 42.312C115.701 42.312 116.709 42.544 117.525 43.008C118.341 43.472 118.965 44.112 119.397 44.928C119.845 45.744 120.093 46.688 120.141 47.76C120.157 48.016 120.165 48.36 120.165 48.792C120.165 49.208 120.157 49.552 120.141 49.824C120.093 50.88 119.853 51.824 119.421 52.656C118.989 53.472 118.365 54.112 117.549 54.576C116.733 55.04 115.717 55.272 114.501 55.272ZM114.501 53.424C115.493 53.424 116.285 53.112 116.877 52.488C117.469 51.848 117.789 50.92 117.837 49.704C117.853 49.464 117.861 49.16 117.861 48.792C117.861 48.424 117.853 48.12 117.837 47.88C117.789 46.664 117.469 45.744 116.877 45.12C116.285 44.48 115.493 44.16 114.501 44.16C113.509 44.16 112.709 44.48 112.101 45.12C111.509 45.744 111.197 46.664 111.165 47.88C111.149 48.12 111.141 48.424 111.141 48.792C111.141 49.16 111.149 49.464 111.165 49.704C111.197 50.92 111.509 51.848 112.101 52.488C112.709 53.112 113.509 53.424 114.501 53.424Z" fill="#369A30"/>
<path d="M123.723 55.032C123.563 55.032 123.427 54.984 123.315 54.888C123.219 54.776 123.171 54.64 123.171 54.48V43.104C123.171 42.944 123.219 42.816 123.315 42.72C123.427 42.608 123.563 42.552 123.723 42.552H124.875C125.035 42.552 125.163 42.608 125.259 42.72C125.355 42.816 125.403 42.944 125.403 43.104V47.712H131.955V43.104C131.955 42.944 132.003 42.816 132.099 42.72C132.211 42.608 132.347 42.552 132.507 42.552H133.635C133.795 42.552 133.923 42.608 134.019 42.72C134.131 42.816 134.187 42.944 134.187 43.104V54.48C134.187 54.64 134.131 54.776 134.019 54.888C133.923 54.984 133.795 55.032 133.635 55.032H132.507C132.347 55.032 132.211 54.984 132.099 54.888C132.003 54.776 131.955 54.64 131.955 54.48V49.632H125.403V54.48C125.403 54.64 125.355 54.776 125.259 54.888C125.163 54.984 125.035 55.032 124.875 55.032H123.723Z" fill="#369A30"/>
<path d="M137.676 55.004C137.436 55.004 137.232 54.932 137.064 54.788C136.92 54.644 136.848 54.44 136.848 54.176V47.588C136.848 47.348 136.92 47.156 137.064 47.012C137.232 46.844 137.436 46.76 137.676 46.76H138.432C139.008 46.76 139.512 46.496 139.944 45.968C140.376 45.44 140.736 44.636 141.024 43.556C141.336 42.452 141.564 41.06 141.708 39.38C141.852 37.7 141.924 35.708 141.924 33.404V26.5V25.628C141.924 25.388 141.996 25.196 142.14 25.052C142.308 24.884 149.532 19.5 149.772 19.5C150.036 19.5 157.26 24.884 157.404 25.052C157.572 25.196 157.656 25.4 157.656 25.664V26.5V46.76H159.42C159.684 46.76 159.888 46.844 160.032 47.012C160.2 47.156 160.284 47.348 160.284 47.588V54.176C160.284 54.416 160.2 54.608 160.032 54.752C159.888 54.92 159.684 55.004 159.42 55.004H157.584C157.32 55.004 157.116 54.92 156.972 54.752C156.828 54.608 156.756 54.416 156.756 54.176V50H140.376V54.176C140.376 54.416 140.292 54.608 140.124 54.752C139.98 54.92 139.776 55.004 139.512 55.004H137.676ZM143.04 46.76H154.128V28.04H145.38V33.836C145.38 37.244 145.176 39.992 144.768 42.08C144.384 44.168 143.808 45.728 143.04 46.76Z" fill="#369A30"/>
<path d="M62.5735 55.032C62.4135 55.032 62.2855 54.984 62.1895 54.888C62.0935 54.792 62.0455 54.664 62.0455 54.504V43.008C62.0455 42.88 62.0935 42.776 62.1895 42.696C62.3015 42.6 62.4135 42.552 62.5255 42.552H63.7495C64.0055 42.552 64.2055 42.68 64.3495 42.936L68.4295 50.568L72.5335 42.936C72.6775 42.68 72.8775 42.552 73.1335 42.552H74.3335C74.4615 42.552 74.5735 42.6 74.6695 42.696C74.7655 42.776 74.8135 42.88 74.8135 43.008V54.504C74.8135 54.664 74.7655 54.792 74.6695 54.888C74.5735 54.984 74.4535 55.032 74.3095 55.032H73.1335C72.9735 55.032 72.8455 54.984 72.7495 54.888C72.6535 54.792 72.6055 54.664 72.6055 54.504V46.6112L69.5335 52.416C69.4535 52.576 69.3575 52.72 69.2455 52.848C69.1335 52.976 68.9655 53.04 68.7415 53.04H68.1175C67.9095 53.04 67.7495 52.976 67.6375 52.848C67.5255 52.72 67.4215 52.576 67.3255 52.416L64.2775 46.7637V54.504C64.2775 54.664 64.2295 54.792 64.1335 54.888C64.0375 54.984 63.9095 55.032 63.7495 55.032H62.5735Z" fill="#369A30"/>
<path d="M43.544 24.3632L35.364 17.9792C35.0029 17.6974 34.4967 17.6969 34.1351 17.9779L25.9177 24.3645C25.4836 24.7019 25.4435 25.3435 25.8323 25.7323C26.0037 25.9037 26.2362 26 26.4786 26H26.904V25.628C26.904 25.388 26.976 25.196 27.12 25.052C27.288 24.884 34.512 19.5 34.752 19.5C35.016 19.5 42.24 24.884 42.384 25.052C42.552 25.196 42.636 25.4 42.636 25.664V26H42.9809C43.2236 26 43.4564 25.9036 43.6281 25.7319C44.0169 25.3431 43.9775 24.7015 43.544 24.3632Z" fill="#895A33"/>
<path d="M158.564 24.8632L150.384 18.4792C150.023 18.1974 149.517 18.1969 149.155 18.4779L140.938 24.8645C140.504 25.2019 140.464 25.8435 140.852 26.2323C141.024 26.4037 141.256 26.5 141.499 26.5H141.924V25.628C141.924 25.388 141.996 25.196 142.14 25.052C142.308 24.884 149.532 19.5 149.772 19.5C150.036 19.5 157.26 24.884 157.404 25.052C157.572 25.196 157.656 25.4 157.656 25.664V26.5H158.001C158.244 26.5 158.476 26.4036 158.648 26.2319C159.037 25.8431 158.998 25.2015 158.564 24.8632Z" fill="#895A33"/>
<path d="M181.5 37.5C181.5 42.146 179.209 46.7142 174.766 51.0194C170.318 55.3291 163.804 59.2793 155.631 62.6285C139.294 69.3241 116.621 73.5 91.5 73.5C66.3788 73.5 43.7057 69.3241 27.3686 62.6285C19.1964 59.2793 12.682 55.3291 8.23433 51.0194C3.79115 46.7142 1.5 42.146 1.5 37.5C1.5 32.854 3.79115 28.2858 8.23433 23.9806C12.682 19.6709 19.1964 15.7207 27.3686 12.3715C43.7057 5.6759 66.3788 1.5 91.5 1.5C116.621 1.5 139.294 5.6759 155.631 12.3715C163.804 15.7207 170.318 19.6709 174.766 23.9806C179.209 28.2858 181.5 32.854 181.5 37.5Z" stroke="#369A30" stroke-width="3"/>
<path d="M135.839 25.8179L133.5 25.3362L132 25.0274L121.202 22.8043C120.501 22.66 119.88 23.2778 120.02 23.9799L120.087 24.3158C120.156 24.6619 120.401 24.9407 120.724 25.0588V24.7198C120.724 24.0888 121.301 23.6155 121.92 23.7392L134.92 26.3392C135.388 26.4327 135.724 26.8431 135.724 27.3198V27.4037C136.046 27.3853 136.333 27.1732 136.438 26.8567C136.59 26.4009 136.31 25.9148 135.839 25.8179Z" fill="#895A33"/>
<path fill-rule="evenodd" clip-rule="evenodd" d="M120.724 24.7198C120.724 24.0888 121.301 23.6155 121.92 23.7392L134.92 26.3392C135.388 26.4327 135.724 26.8431 135.724 27.3198V27.4037V38C135.724 38.5523 135.276 39 134.724 39H126.974V34C126.974 33.4477 126.526 33 125.974 33H124.724C124.172 33 123.724 33.4477 123.724 34V39H121.724C121.172 39 120.724 38.5523 120.724 38V25.0588V24.7198ZM123.724 27H125.724C126.276 27 126.724 27.4477 126.724 28V31C126.724 31.5523 126.276 32 125.724 32H123.724C123.172 32 122.724 31.5523 122.724 31V28C122.724 27.4477 123.172 27 123.724 27ZM132.724 27H130.724C130.172 27 129.724 27.4477 129.724 28V31C129.724 31.5523 130.172 32 130.724 32H132.724C133.276 32 133.724 31.5523 133.724 31V28C133.724 27.4477 133.276 27 132.724 27ZM130.724 33H132.724C133.276 33 133.724 33.4477 133.724 34V37C133.724 37.5523 133.276 38 132.724 38H130.724C130.172 38 129.724 37.5523 129.724 37V34C129.724 33.4477 130.172 33 130.724 33Z" fill="#369A30"/>
<path d="M123.724 39H126.974V34C126.974 33.4477 126.526 33 125.974 33H124.724C124.172 33 123.724 33.4477 123.724 34V39Z" fill="#895A33"/>
<path d="M133.5 24.75C133.5 24.3358 133.164 24 132.75 24C132.336 24 132 24.3358 132 24.75V25.0274L133.5 25.3362V24.75Z" fill="#369A30"/>
<path d="M71.1807 33H72.4307C72.983 33 73.4307 33.4477 73.4307 34V39H70.1807V34C70.1807 33.4477 70.6284 33 71.1807 33Z" fill="#895A33"/>
<path fill-rule="evenodd" clip-rule="evenodd" d="M77.8307 13.618C77.8307 13.5729 77.8278 13.5287 77.8223 13.4856L77.8307 13.618Z" fill="#369A30"/>
<path fill-rule="evenodd" clip-rule="evenodd" d="M76.3835 12.7236L66.3835 17.7236C66.0447 17.893 65.8307 18.2393 65.8307 18.618V19.0487V38C65.8307 38.5523 66.2784 39 66.8307 39H76.8307C77.383 39 77.8307 38.5523 77.8307 38V13.618L77.8223 13.4856C77.7361 12.8189 77.008 12.4114 76.3835 12.7236ZM72.4307 33H71.1807C70.6284 33 70.1807 33.4477 70.1807 34V39H73.4307V34C73.4307 33.4477 72.983 33 72.4307 33ZM69.8307 27H67.8307C67.2784 27 66.8307 27.4477 66.8307 28V31C66.8307 31.5523 67.2784 32 67.8307 32H69.8307C70.383 32 70.8307 31.5523 70.8307 31V28C70.8307 27.4477 70.383 27 69.8307 27ZM75.8307 27H73.8307C73.2784 27 72.8307 27.4477 72.8307 28V31C72.8307 31.5523 73.2784 32 73.8307 32H75.8307C76.383 32 76.8307 31.5523 76.8307 31V28C76.8307 27.4477 76.383 27 75.8307 27ZM69.8307 21H67.8307C67.2784 21 66.8307 21.4477 66.8307 22V25C66.8307 25.5523 67.2784 26 67.8307 26H69.8307C70.383 26 70.8307 25.5523 70.8307 25V22C70.8307 21.4477 70.383 21 69.8307 21ZM75.8307 21H73.8307C73.2784 21 72.8307 21.4477 72.8307 22V25C72.8307 25.5523 73.2784 26 73.8307 26H75.8307C76.383 26 76.8307 25.5523 76.8307 25V22C76.8307 21.4477 76.383 21 75.8307 21ZM76.8307 19V16C76.8307 15.4477 76.383 15 75.8307 15H73.8307C73.3171 15 72.8938 15.3873 72.8372 15.8858C72.8329 15.9233 72.8307 15.9614 72.8307 16V19C72.8307 19.5523 73.2784 20 73.8307 20H75.8307C76.383 20 76.8307 19.5523 76.8307 19Z" fill="#369A30"/>
<path d="M98.2468 13.5675L95.5 11.5074L94 10.3824L91.4235 8.45C91.0679 8.18333 90.579 8.18333 90.2235 8.45L83.4001 13.5675C83.0557 13.8258 82.9153 14.2754 83.0514 14.6838L83.0955 14.8162C83.2078 15.153 83.4874 15.3994 83.8235 15.4754V14.5146C83.8235 14.1917 83.9794 13.8886 84.2422 13.7009L90.2422 9.41517C90.5899 9.16681 91.057 9.16681 91.4047 9.41517L97.4047 13.7009C97.6675 13.8886 97.8235 14.1917 97.8235 14.5146V15.4754C98.1595 15.3994 98.4391 15.153 98.5514 14.8162L98.5955 14.6838C98.7316 14.2754 98.5912 13.8258 98.2468 13.5675Z" fill="#895A33"/>
<path d="M92.5735 39H95.8235V34C95.8235 33.4477 95.3757 33 94.8235 33H93.5735C93.0212 33 92.5735 33.4477 92.5735 34V39Z" fill="#895A33"/>
<path d="M85.8235 39H89.0735V34C89.0735 33.4477 88.6257 33 88.0735 33H86.8235C86.2712 33 85.8235 33.4477 85.8235 34V39Z" fill="#895A33"/>
<path fill-rule="evenodd" clip-rule="evenodd" d="M95.8235 39H96.8235C97.3757 39 97.8235 38.5523 97.8235 38V15.4754V14.5146C97.8235 14.1917 97.6675 13.8886 97.4047 13.7009L91.4047 9.41517C91.057 9.16681 90.5899 9.16681 90.2422 9.41517L84.2422 13.7009C83.9794 13.8886 83.8235 14.1917 83.8235 14.5146V15.4754V38C83.8235 38.5523 84.2712 39 84.8235 39H85.8235V34C85.8235 33.4477 86.2712 33 86.8235 33H88.0735C88.6257 33 89.0735 33.4477 89.0735 34V39H92.5735V34C92.5735 33.4477 93.0212 33 93.5735 33H94.8235C95.3757 33 95.8235 33.4477 95.8235 34V39ZM90.8235 14C91.3757 14 91.8235 13.5523 91.8235 13C91.8235 12.4477 91.3757 12 90.8235 12C90.2712 12 89.8235 12.4477 89.8235 13C89.8235 13.5523 90.2712 14 90.8235 14ZM88.8235 27H86.8235C86.2712 27 85.8235 27.4477 85.8235 28V31C85.8235 31.5523 86.2712 32 86.8235 32H88.8235C89.3757 32 89.8235 31.5523 89.8235 31V28C89.8235 27.4477 89.3757 27 88.8235 27ZM94.8235 27H92.8235C92.2712 27 91.8235 27.4477 91.8235 28V31C91.8235 31.5523 92.2712 32 92.8235 32H94.8235C95.3757 32 95.8235 31.5523 95.8235 31V28C95.8235 27.4477 95.3757 27 94.8235 27ZM88.8235 21H86.8235C86.2712 21 85.8235 21.4477 85.8235 22V25C85.8235 25.5523 86.2712 26 86.8235 26H88.8235C89.3757 26 89.8235 25.5523 89.8235 25V22C89.8235 21.4477 89.3757 21 88.8235 21ZM94.8235 21H92.8235C92.2712 21 91.8235 21.4477 91.8235 22V25C91.8235 25.5523 92.2712 26 92.8235 26H94.8235C95.3757 26 95.8235 25.5523 95.8235 25V22C95.8235 21.4477 95.3757 21 94.8235 21ZM88.8235 15H86.8235C86.2712 15 85.8235 15.4477 85.8235 16V19C85.8235 19.5523 86.2712 20 86.8235 20H88.8235C89.3757 20 89.8235 19.5523 89.8235 19V16C89.8235 15.4477 89.3757 15 88.8235 15ZM94.8235 15H92.8235C92.2712 15 91.8235 15.4477 91.8235 16V19C91.8235 19.5523 92.2712 20 92.8235 20H94.8235C95.3757 20 95.8235 19.5523 95.8235 19V16C95.8235 15.4477 95.3757 15 94.8235 15Z" fill="#369A30"/>
<path d="M95.5 9.75C95.5 9.33579 95.1642 9 94.75 9C94.3358 9 94 9.33579 94 9.75V10.3824L95.5 11.5074V9.75Z" fill="#369A30"/>
<path fill-rule="evenodd" clip-rule="evenodd" d="M47.8053 26.4684C47.8053 26.1716 47.9372 25.8901 48.1652 25.7002L53.1652 21.5335C53.536 21.2244 54.0747 21.2244 54.4455 21.5335L59.4455 25.7002C59.6735 25.8901 59.8053 26.1716 59.8053 26.4684V38C59.8053 38.5523 59.3576 39 58.8053 39H55.4053V34C55.4053 33.4477 54.9576 33 54.4053 33H53.1553C52.6031 33 52.1553 33.4477 52.1553 34V39H48.8053C48.2531 39 47.8053 38.5523 47.8053 38V26.4684ZM55.8053 27H57.8053C58.3576 27 58.8053 27.4477 58.8053 28V31C58.8053 31.5523 58.3576 32 57.8053 32H55.8053C55.2531 32 54.8053 31.5523 54.8053 31V28C54.8053 27.4477 55.2531 27 55.8053 27ZM51.8053 27H49.8053C49.2531 27 48.8053 27.4477 48.8053 28V31C48.8053 31.5523 49.2531 32 49.8053 32H51.8053C52.3576 32 52.8053 31.5523 52.8053 31V28C52.8053 27.4477 52.3576 27 51.8053 27ZM54.8053 25C54.8053 25.5523 54.3576 26 53.8053 26C53.2531 26 52.8053 25.5523 52.8053 25C52.8053 24.4477 53.2531 24 53.8053 24C54.3576 24 54.8053 24.4477 54.8053 25Z" fill="#369A30"/>
<path d="M52.1553 39H55.4053V34C55.4053 33.4477 54.9576 33 54.4053 33H53.1553C52.6031 33 52.1553 33.4477 52.1553 34V39Z" fill="#895A33"/>
<path d="M60.3315 25.5939L59 24.4526L57.5 23.1669L54.4561 20.5578C54.0816 20.2368 53.529 20.2368 53.1545 20.5578L47.2792 25.5939C47.0007 25.8326 46.9204 26.2301 47.0844 26.5582C47.2198 26.829 47.4966 27 47.7993 27L47.8053 26.4684C47.8053 26.1716 47.9372 25.8901 48.1652 25.7002L53.1652 21.5335C53.536 21.2244 54.0747 21.2244 54.4455 21.5335L59.4455 25.7002C59.6735 25.8901 59.8053 26.1716 59.8053 26.4684L59.8114 27C60.1141 27 60.3909 26.829 60.5263 26.5582C60.6903 26.2301 60.61 25.8326 60.3315 25.5939Z" fill="#895A33"/>
<path d="M59 22.25C59 21.8358 58.6642 21.5 58.25 21.5C57.8358 21.5 57.5 21.8358 57.5 22.25V23.1669L59 24.4526V22.25Z" fill="#369A30"/>
<path d="M107.155 39.0029C107.155 39.0029 109.136 39.0029 110.405 39.0029C110.405 37.0503 110.405 34.0029 110.405 34.0029C110.405 34.0029 110.405 34.0029 110.405 34.0029C110.405 33.4506 109.958 33.0029 109.405 33.0029H108.155C107.603 33.0029 107.155 33.4506 107.155 34.0029V39.0029Z" fill="#895A33"/>
<path d="M115.332 19.0939L109.456 14.0578C109.082 13.7368 108.529 13.7368 108.155 14.0578L102.279 19.0939C102.001 19.3326 101.92 19.7301 102.084 20.0582C102.22 20.329 102.497 20.5 102.799 20.5L102.805 19.9684C102.805 19.6716 102.937 19.3901 103.165 19.2002L108.165 15.0335C108.536 14.7244 109.075 14.7244 109.446 15.0335L114.446 19.2002C114.674 19.3901 114.805 19.6716 114.805 19.9684L114.811 20.5C115.114 20.5 115.391 20.329 115.526 20.0582C115.69 19.7301 115.61 19.3326 115.332 19.0939Z" fill="#895A33"/>
<path fill-rule="evenodd" clip-rule="evenodd" d="M114.805 38.0029V19.9684C114.805 19.6716 114.674 19.3901 114.446 19.2002L109.446 15.0335C109.075 14.7244 108.536 14.7244 108.165 15.0335L103.165 19.2002C102.937 19.3901 102.805 19.6716 102.805 19.9684V38.0029C102.805 38.5552 103.253 39.0029 103.805 39.0029H107.155V34.0029C107.155 33.4506 107.603 33.0029 108.155 33.0029H109.405C109.958 33.0029 110.405 33.4506 110.405 34.0029C110.405 34.0029 110.405 34.0029 110.405 34.0029C110.405 34.0029 110.405 37.0503 110.405 39.0029C111.733 39.0029 113.805 39.0029 113.805 39.0029C114.358 39.0029 114.805 38.5552 114.805 38.0029ZM106.805 27.0029H104.805C104.253 27.0029 103.805 27.4506 103.805 28.0029V31.0029C103.805 31.5552 104.253 32.0029 104.805 32.0029H106.805C107.358 32.0029 107.805 31.5552 107.805 31.0029V28.0029C107.805 27.4506 107.358 27.0029 106.805 27.0029ZM112.805 27.0029H110.805C110.253 27.0029 109.805 27.4506 109.805 28.0029V31.0029C109.805 31.5552 110.253 32.0029 110.805 32.0029H112.805C113.358 32.0029 113.805 31.5552 113.805 31.0029V28.0029C113.805 27.4506 113.358 27.0029 112.805 27.0029ZM108.805 19.5C109.358 19.5 109.805 19.0523 109.805 18.5C109.805 17.9477 109.358 17.5 108.805 17.5C108.253 17.5 107.805 17.9477 107.805 18.5C107.805 19.0523 108.253 19.5 108.805 19.5ZM106.805 21H104.805C104.253 21 103.805 21.4477 103.805 22V25C103.805 25.5523 104.253 26 104.805 26H106.805C107.358 26 107.805 25.5523 107.805 25V22C107.805 21.4477 107.358 21 106.805 21ZM112.805 21H110.805C110.253 21 109.805 21.4477 109.805 22V25C109.805 25.5523 110.253 26 110.805 26H112.805C113.358 26 113.805 25.5523 113.805 25V22C113.805 21.4477 113.358 21 112.805 21Z" fill="#369A30"/>
<path d="M77.2245 11.5326L65.5646 17.1467C65.1372 17.3524 64.9151 17.8375 65.0301 18.2977C65.1306 18.6996 65.4571 18.9798 65.8307 19.0487V18.618C65.8307 18.2393 66.0447 17.893 66.3835 17.7236L76.3835 12.7236C77.008 12.4114 77.7361 12.8189 77.8223 13.4856L78.0968 13.3533C78.5242 13.1476 78.7463 12.6625 78.6313 12.2023C78.4776 11.5876 77.7954 11.2577 77.2245 11.5326Z" fill="#895A33"/>
</svg>
